<svg version="1.1" id="Layer_1" xmlns="http://www.w3.org/2000/svg" xmlns:xlink="http://www.w3.org/1999/xlink" x="0px" y="0px"
	 width="100%" viewBox="0 0 339 318" enable-background="new 0 0 339 318" xml:space="preserve">
<path fill="#161616" opacity="1.000000" stroke="none" 
	d="
M226.000000,319.000000 
	C150.666687,319.000000 75.833359,319.000000 1.000030,319.000000 
	C1.000020,213.000031 1.000020,107.000061 1.000010,1.000073 
	C113.999947,1.000049 226.999893,1.000049 339.999878,1.000024 
	C339.999939,106.999931 339.999939,212.999863 339.999969,318.999878 
	C302.166656,319.000000 264.333344,319.000000 226.000000,319.000000 
M272.889069,115.740723 
	C273.264648,115.771233 273.640198,115.801743 274.809906,115.907745 
	C275.868286,115.848473 276.926666,115.789200 278.910004,115.901138 
	C286.325592,115.833961 293.741150,115.766785 301.678619,115.820114 
	C301.851959,115.777328 302.025299,115.734550 302.494873,115.838623 
	C302.494873,115.838623 302.784332,115.678680 303.685059,115.636665 
	C303.828613,115.079208 303.972137,114.521759 304.331635,113.246780 
	C304.264252,112.507668 304.196869,111.768562 304.134827,110.379608 
	C303.755005,110.246582 303.375214,110.113548 302.072144,109.809258 
	C294.380585,109.882339 286.689056,109.955421 278.154388,109.870422 
	C276.299835,109.870422 274.445251,109.870422 272.312042,109.870422 
	C272.464569,112.052780 272.573914,113.617134 272.889069,115.740723 
M47.844467,210.106323 
	C46.885849,211.389633 45.927235,212.672928 44.406750,214.313293 
	C42.519642,216.851028 40.632534,219.388779 38.210011,222.280746 
	C36.788216,224.169678 35.366421,226.058594 33.384289,228.289062 
	C31.921789,230.191940 30.459291,232.094803 28.494192,234.392365 
	C27.325043,235.925034 26.155891,237.457718 24.498175,239.400574 
	C23.329233,240.931366 22.160292,242.462173 20.497746,244.412125 
	C19.000668,246.276550 17.503590,248.140976 15.496023,250.437775 
	C13.993254,252.586975 12.490484,254.736176 10.509772,257.568909 
	C18.670410,258.161652 25.744482,259.763947 30.593115,251.689377 
	C32.732021,249.796570 34.870934,247.903778 37.582130,245.690750 
	C39.410152,243.812134 41.238174,241.933517 43.637062,239.721329 
	C45.750484,237.805710 47.863903,235.890091 50.558002,233.652557 
	C55.369778,229.100296 60.181553,224.548035 65.565529,219.659576 
	C68.735619,216.505081 71.905708,213.350586 75.640701,209.860748 
	C77.063606,208.548660 78.486511,207.236572 80.501045,205.619934 
	C84.041328,202.159393 87.581612,198.698853 91.697014,194.894104 
	C93.772415,192.917816 95.847824,190.941513 98.499496,188.672043 
	C100.066711,187.001877 101.633934,185.331711 103.832626,183.457809 
	C104.907402,182.383484 105.982178,181.309143 107.663101,179.919830 
	C111.132126,176.651306 114.601151,173.382767 118.721458,170.204285 
	C121.783493,173.270874 124.845520,176.337479 128.256866,179.841888 
	C128.813766,180.577362 129.370651,181.312820 130.291351,182.603668 
	C132.533478,185.065063 134.775589,187.526474 137.315582,190.583145 
	C141.008545,194.718246 144.701492,198.853348 148.834641,203.481369 
	C151.562881,199.761993 153.868851,196.618301 156.717224,193.039932 
	C159.196304,189.822113 161.675385,186.604279 164.680801,183.002136 
	C166.509155,181.571381 167.036438,180.050415 165.179321,178.191055 
	C163.811066,176.821152 162.557892,175.336288 160.987137,173.376678 
	C160.187271,172.559464 159.387390,171.742233 158.308517,170.253143 
	C156.305252,167.856842 154.301987,165.460541 151.955399,162.448273 
	C149.529007,159.578796 147.102615,156.709335 144.363022,153.204529 
	C142.539413,151.054855 140.715820,148.905182 138.559677,146.112854 
	C136.257019,143.361359 133.954361,140.609863 131.296661,137.227036 
	C129.459167,135.070267 127.621674,132.913498 125.447014,130.120392 
	C123.225761,127.336639 121.004517,124.552887 118.478119,121.386719 
	C116.418976,124.161934 114.679070,126.506889 112.352242,129.191589 
	C108.851166,133.694153 105.350090,138.196716 101.264687,143.053055 
	C98.788864,146.284012 96.313049,149.514984 93.253807,153.092026 
	C89.653152,157.683182 86.052490,162.274323 81.955040,167.235367 
	C80.277504,169.443695 78.599976,171.652039 76.344170,174.205750 
	C74.393311,176.743332 72.442451,179.280930 69.989624,182.204010 
	C68.297523,184.419662 66.605431,186.635300 64.363228,189.198486 
	C63.227547,190.770905 62.091866,192.343307 60.391460,194.277283 
	C57.916386,197.502197 55.441311,200.727112 52.388168,204.293716 
	C51.028606,206.123001 49.669041,207.952271 47.844467,210.106323 
M217.749725,190.066452 
	C218.579895,189.640305 219.410080,189.214172 220.864792,188.389603 
	C222.167679,185.991776 224.550385,183.615494 224.598755,181.192596 
	C224.920746,165.067368 224.743561,148.932159 225.391907,132.504135 
	C225.620911,132.582794 225.849899,132.661438 226.307205,133.389450 
	C227.490402,134.798325 228.673584,136.207214 230.054123,138.222122 
	C233.400620,142.465881 236.747131,146.709656 240.310028,151.584061 
	C242.169174,153.861389 244.028320,156.138733 246.079483,159.041000 
	C248.672775,162.244522 251.266083,165.448029 253.969666,169.257126 
	C254.882202,170.377029 255.794739,171.496933 256.882538,173.087494 
	C257.230927,173.430847 257.579285,173.774200 258.151489,174.747726 
	C259.301758,176.129745 260.452057,177.511780 261.832550,179.457047 
	C263.084320,180.867905 264.336090,182.278763 265.733185,184.335785 
	C267.168732,186.888702 268.604248,189.441605 269.318115,192.086029 
	C260.033173,186.298386 250.748215,180.510742 240.997177,174.432571 
	C235.407761,187.970596 229.940613,201.212463 224.215881,215.078217 
	C219.013474,210.136978 214.624557,205.968384 209.988495,201.565063 
	C194.817017,220.381454 180.060135,238.683670 164.965500,257.404755 
	C220.179733,257.404755 274.438782,257.404755 329.699371,257.404755 
	C312.720886,235.394257 296.367493,214.194138 279.765961,192.363739 
	C276.211578,187.850128 272.657196,183.336517 268.891876,178.232193 
	C267.951599,177.118484 267.011292,176.004791 265.826660,174.263504 
	C263.089966,170.777313 260.353271,167.291122 257.279449,163.178116 
	C254.856720,160.110703 252.433975,157.043289 249.782288,153.354141 
	C248.243378,151.478027 246.704483,149.601898 244.939819,147.093170 
	C241.775864,143.123901 238.611893,139.154633 235.139038,134.558121 
	C234.185059,133.375504 233.231079,132.192871 232.031281,130.347214 
	C229.795258,127.435555 227.559235,124.523903 225.042984,121.247337 
	C223.252258,123.619942 221.894028,125.419533 219.964172,127.746239 
	C216.936752,131.751068 213.909332,135.755905 210.287659,140.093964 
	C207.586319,143.636871 204.884995,147.179779 201.682007,151.076965 
	C198.370041,155.390549 195.058060,159.704147 191.190796,164.341827 
	C189.000412,167.247620 186.810013,170.153427 184.086166,173.386581 
	C181.157578,177.180435 178.228989,180.974289 174.824066,185.148865 
	C173.144455,187.401474 171.464844,189.654083 169.228271,192.262939 
	C166.268234,196.105194 163.308182,199.947449 159.860931,204.151489 
	C158.203262,206.367371 156.545593,208.583252 154.331451,211.183334 
	C149.339264,217.744720 144.347092,224.306107 138.781052,231.104385 
	C131.861099,239.720749 124.941154,248.337112 117.241028,257.924927 
	C128.660172,257.924927 138.761566,258.116760 148.845093,257.777496 
	C151.104187,257.701447 153.990753,256.333923 155.420517,254.598648 
	C171.719254,234.817398 187.791351,214.849396 204.479813,195.387924 
	C207.717072,197.192307 210.982132,199.929901 214.603149,194.741974 
	C215.448303,193.209702 216.293442,191.677414 217.749725,190.066452 
M282.380615,141.890442 
	C277.642883,139.077896 272.905182,136.265350 267.864166,133.272751 
	C266.741241,135.442123 265.952240,136.966370 265.002014,138.802155 
	C269.865662,141.512436 274.342957,144.007401 279.298859,146.935013 
	C283.515442,149.406219 287.731995,151.877411 292.246429,154.523178 
	C293.346588,152.310791 294.117767,150.759933 295.020020,148.945511 
	C290.770264,146.618164 286.864075,144.478958 282.380615,141.890442 
M133.479080,222.729385 
	C133.702988,222.287628 133.926895,221.845871 134.704483,220.989883 
	C136.698532,218.622864 138.533310,216.094162 140.728668,213.931503 
	C143.232681,211.464813 143.189056,209.589355 139.794662,207.278748 
	C138.106888,205.443573 136.419113,203.608383 134.360184,201.165405 
	C129.252167,195.370987 124.144157,189.576553 118.605095,183.334595 
	C113.681595,187.817917 108.758095,192.301239 103.191795,196.994049 
	C98.733498,201.310837 94.275200,205.627640 89.267227,210.262878 
	C87.858337,211.524292 86.449448,212.785690 84.449631,214.349136 
	C81.276459,217.564148 78.103287,220.779160 74.371048,224.302917 
	C72.889450,225.858902 71.407852,227.414902 69.281342,229.085587 
	C67.851700,230.387802 66.422066,231.690018 64.412811,233.313721 
	C61.939629,235.874542 59.466442,238.435379 56.409683,241.321320 
	C53.927910,243.529388 51.446140,245.737442 48.964367,247.945511 
	C49.145947,248.386856 49.327522,248.828217 49.509102,249.269577 
	C51.382908,249.513031 53.253433,249.936966 55.131042,249.971115 
	C68.987305,250.223099 82.859207,250.851822 96.696655,250.418686 
	C104.487495,250.174789 113.925537,252.359238 118.487785,241.496964 
	C118.994621,239.666275 119.501457,237.835571 120.014565,235.527649 
	C120.014565,235.527649 120.004524,235.050583 120.728203,234.950851 
	C127.303963,233.531357 129.339355,227.403671 133.479080,222.729385 
M169.699066,147.883789 
	C174.959702,144.858002 180.220337,141.832199 185.741989,138.656265 
	C184.586121,136.663712 183.703537,135.142273 182.589691,133.222137 
	C176.480728,136.935577 170.723618,140.435150 164.272659,144.087219 
	C161.365555,145.768646 158.458435,147.450073 155.322159,149.264053 
	C156.605026,151.267410 157.529449,152.711029 158.646271,154.455109 
	C162.376358,152.138916 165.690674,150.080902 169.699066,147.883789 
M269.368713,84.464264 
	C267.875793,85.395271 266.382904,86.326279 264.791626,87.318634 
	C266.002594,89.220169 266.945374,90.700592 268.081268,92.484253 
	C269.976013,91.234634 271.592743,90.168365 273.886719,88.974403 
	C280.942291,84.814217 287.997833,80.654030 295.200012,76.407394 
	C294.015778,74.435997 293.108276,72.925285 292.019165,71.112213 
	C284.455109,75.632210 277.232635,79.948090 269.368713,84.464264 
M249.298431,66.124611 
	C248.444870,67.690826 247.591309,69.257034 246.605789,71.065369 
	C248.397919,72.115013 249.920074,73.006538 251.798676,74.106827 
	C252.779495,72.330292 253.645538,70.761681 254.959351,68.714470 
	C259.158081,61.538715 263.356812,54.362965 267.670105,46.991459 
	C265.614197,45.859501 264.089264,45.019890 262.204559,43.982201 
	C257.987061,51.399681 253.924210,58.545116 249.298431,66.124611 
M180.899200,84.294128 
	C173.482483,79.984550 166.065765,75.674973 158.395584,71.218124 
	C157.295929,73.124847 156.413574,74.654770 155.306900,76.573654 
	C162.934845,80.884193 170.267578,85.027908 178.048325,89.726082 
	C179.560684,90.553238 181.073029,91.380386 182.794189,92.321739 
	C183.748962,90.393135 184.518875,88.837921 185.434448,86.988472 
	C183.876465,86.179131 182.600433,85.516251 180.899200,84.294128 
M201.013458,66.037941 
	C196.835114,58.770683 192.656784,51.503422 188.313095,43.948578 
	C186.344574,45.098743 184.711502,46.052914 182.854034,47.138187 
	C187.678650,55.188290 192.243484,62.804928 196.938522,71.076355 
	C197.637711,72.070206 198.336914,73.064056 199.099792,74.148407 
	C200.853668,72.975090 202.279907,72.020966 203.903076,70.935089 
	C202.864059,69.349129 202.001511,68.032516 201.013458,66.037941 
M176.089523,109.833130 
	C166.726837,109.886604 157.364151,109.940079 147.497482,109.874535 
	C147.339584,109.944244 147.181671,110.013947 146.295593,110.426903 
	C146.295593,112.161652 146.295593,113.896393 146.295593,115.663742 
	C157.165283,115.663742 167.512238,115.663742 178.129379,115.663742 
	C178.041824,113.914268 177.968323,112.445206 177.938370,110.420982 
	C177.628708,110.291939 177.319031,110.162895 176.089523,109.833130 
M262.632965,123.534378 
	C262.804840,122.381493 262.976715,121.228607 263.564850,119.364769 
	C263.369171,114.576050 263.173523,109.787323 263.037903,104.297768 
	C262.688782,103.198433 262.339691,102.099098 261.991211,100.280327 
	C260.986786,98.189552 259.982361,96.098785 258.858185,93.330238 
	C255.607910,89.888031 252.357651,86.445831 249.046539,82.295700 
	C237.947266,71.829102 211.820526,72.594894 201.427353,82.399940 
	C198.002548,86.598969 194.577744,90.797997 190.701950,95.550430 
	C189.888855,97.697052 189.075760,99.843674 187.967346,102.625603 
	C187.928772,103.087852 187.890198,103.550095 187.400192,104.708664 
	C187.235336,107.807953 187.070480,110.907234 186.738541,114.835571 
	C187.142258,117.231468 187.545975,119.627357 187.926468,122.780769 
	C189.025024,125.515488 190.123581,128.250214 191.377579,131.635712 
	C193.569473,134.584656 195.761383,137.533600 198.262512,140.898575 
	C201.251434,136.837997 203.678772,133.540390 206.675400,129.836090 
	C209.168716,126.577408 211.662033,123.318726 214.708801,119.744415 
	C215.567520,118.535568 216.426254,117.326729 217.836975,115.779343 
	C219.636948,113.389656 221.436920,110.999962 223.782684,108.215118 
	C224.519119,107.756905 225.255569,107.298691 226.627502,107.171730 
	C229.475769,110.944565 232.324036,114.717392 235.172440,119.208458 
	C236.957108,121.433975 238.741776,123.659492 240.776245,126.466011 
	C243.138260,129.436707 245.500290,132.407394 248.044830,135.993759 
	C249.243805,137.510483 250.442764,139.027191 252.150635,141.187668 
	C254.322235,138.223587 256.214813,135.640335 258.655609,132.642426 
	C259.836121,129.790741 261.016663,126.939049 262.632965,123.534378 
M222.093750,48.512043 
	C222.093750,54.268925 222.093750,60.025806 222.093750,65.805771 
	C224.431564,65.805771 226.296188,65.805771 228.092377,65.805771 
	C228.092377,55.460030 228.092377,45.446526 228.092377,35.455524 
	C226.004105,35.455524 224.253723,35.455524 222.092270,35.455524 
	C222.092270,39.639175 222.092270,43.579136 222.093750,48.512043 
z"/>
<path fill="#717274" opacity="1.000000" stroke="none" 
	d="
M280.014099,192.994019 
	C296.367493,214.194138 312.720886,235.394257 329.699371,257.404755 
	C274.438782,257.404755 220.179733,257.404755 164.965500,257.404755 
	C180.060135,238.683670 194.817017,220.381454 209.988495,201.565063 
	C214.624557,205.968384 219.013474,210.136978 224.215881,215.078217 
	C229.940613,201.212463 235.407761,187.970596 240.997177,174.432571 
	C250.748215,180.510742 260.033173,186.298386 269.658691,192.044159 
	C269.999268,192.002274 270.006836,191.960815 270.015137,192.252365 
	C270.362701,192.705704 270.701965,192.867493 271.006744,193.029938 
	C270.972290,193.030594 270.965881,192.961960 271.043701,193.177032 
	C271.307556,193.668457 271.567139,193.807907 271.988831,194.146469 
	C275.426239,197.736343 277.324188,193.253708 280.014099,192.994019 
z"/>
<path fill="#717274" opacity="1.000000" stroke="none" 
	d="
M224.728622,132.800201 
	C224.743561,148.932159 224.920746,165.067368 224.598755,181.192596 
	C224.550385,183.615494 222.167679,185.991776 220.405823,188.192291 
	C215.691345,183.171387 212.439529,183.155121 209.693542,188.093246 
	C208.627167,189.173523 207.834015,190.105591 206.805328,191.241455 
	C205.687881,192.607254 204.805939,193.769272 203.923996,194.931290 
	C187.791351,214.849396 171.719254,234.817398 155.420517,254.598648 
	C153.990753,256.333923 151.104187,257.701447 148.845093,257.777496 
	C138.761566,258.116760 128.660172,257.924927 117.241028,257.924927 
	C124.941154,248.337112 131.861099,239.720749 139.543777,231.016327 
	C142.928528,230.348633 146.450424,230.635574 148.001663,229.024750 
	C152.428268,224.428085 156.053284,219.059464 160.158981,213.700256 
	C161.922852,210.647186 163.521378,207.888367 165.462646,205.062500 
	C168.572189,201.753052 171.339020,198.510651 174.412628,195.123535 
	C177.155472,191.991913 179.591492,189.005005 182.304840,185.834351 
	C185.336807,182.071335 188.091446,178.492050 191.097214,174.692963 
	C193.512711,171.609177 195.677078,168.745178 198.100159,165.670883 
	C201.844559,160.944717 205.330246,156.428848 209.078842,151.706421 
	C211.325958,148.866196 213.310165,146.232529 215.528152,143.344238 
	C218.441666,139.694870 221.121399,136.300125 224.027283,132.828857 
	C224.253464,132.752304 224.728622,132.800201 224.728622,132.800201 
z"/>
<path fill="#E8E9E9" opacity="1.000000" stroke="none" 
	d="
M202.053314,82.184273 
	C211.820526,72.594894 237.947266,71.829102 248.728516,82.723839 
	C245.398239,84.562531 242.508438,86.492393 239.339767,87.239662 
	C236.077744,88.008949 232.544464,87.704201 229.128784,87.731071 
	C219.931961,87.803459 210.653946,89.147545 201.466278,86.554611 
	C201.703964,84.785095 201.878632,83.484680 202.053314,82.184273 
z"/>
<path fill="#1C1E1D" opacity="1.000000" stroke="none" 
	d="
M118.000305,242.000000 
	C113.925537,252.359238 104.487495,250.174789 96.696655,250.418686 
	C82.859207,250.851822 68.987305,250.223099 55.131042,249.971115 
	C53.253433,249.936966 51.382908,249.513031 49.509102,249.269577 
	C49.327522,248.828217 49.145947,248.386856 48.964367,247.945511 
	C51.446140,245.737442 53.927910,243.529388 56.985939,241.405334 
	C61.453625,241.660202 65.344994,241.832443 69.236496,242.001556 
	C76.831612,242.331619 84.427376,242.932922 92.021812,242.916931 
	C100.681915,242.898697 109.340858,242.329666 118.000305,242.000000 
z"/>
<path fill="#E1E2E1" opacity="1.000000" stroke="none" 
	d="
M201.740326,82.292107 
	C201.878632,83.484680 201.703964,84.785095 201.466278,86.554611 
	C210.653946,89.147545 219.931961,87.803459 229.128784,87.731071 
	C232.544464,87.704201 236.077744,88.008949 239.339767,87.239662 
	C242.508438,86.492393 245.398239,84.562531 248.758942,83.077805 
	C252.357651,86.445831 255.607910,89.888031 258.561157,93.831573 
	C255.003281,94.222168 251.737350,93.939293 248.482605,94.035255 
	C240.856339,94.260109 233.238022,94.848572 225.611755,94.956688 
	C214.127594,95.119484 202.639420,94.997780 191.152939,94.997025 
	C194.577744,90.797997 198.002548,86.598969 201.740326,82.292107 
z"/>
<path fill="#DBDCDC" opacity="1.000000" stroke="none" 
	d="
M190.927444,95.273727 
	C202.639420,94.997780 214.127594,95.119484 225.611755,94.956688 
	C233.238022,94.848572 240.856339,94.260109 248.482605,94.035255 
	C251.737350,93.939293 255.003281,94.222168 258.621033,94.170456 
	C259.982361,96.098785 260.986786,98.189552 261.553192,100.641136 
	C255.190338,101.000992 249.262146,101.125214 243.341522,100.966827 
	C236.216949,100.776230 229.097778,100.063820 221.978134,100.089539 
	C213.025497,100.121864 204.072495,100.623985 195.124710,101.034050 
	C192.827576,101.139328 190.549515,101.660301 188.262665,101.990311 
	C189.075760,99.843674 189.888855,97.697052 190.927444,95.273727 
z"/>
<path fill="#222323" opacity="1.000000" stroke="none" 
	d="
M118.244049,241.748474 
	C109.340858,242.329666 100.681915,242.898697 92.021812,242.916931 
	C84.427376,242.932922 76.831612,242.331619 69.236496,242.001556 
	C65.344994,241.832443 61.453625,241.660202 57.277725,241.242798 
	C59.466442,238.435379 61.939629,235.874542 64.914764,233.476227 
	C70.043655,234.425690 74.657631,235.786362 79.299980,235.891281 
	C92.863342,236.197723 106.438042,236.003113 120.008293,236.004883 
	C119.501457,237.835571 118.994621,239.666275 118.244049,241.748474 
z"/>
<path fill="#D5D7D6" opacity="1.000000" stroke="none" 
	d="
M188.115021,102.307953 
	C190.549515,101.660301 192.827576,101.139328 195.124710,101.034050 
	C204.072495,100.623985 213.025497,100.121864 221.978134,100.089539 
	C229.097778,100.063820 236.216949,100.776230 243.341522,100.966827 
	C249.262146,101.125214 255.190338,101.000992 261.552856,101.000854 
	C262.339691,102.099098 262.688782,103.198433 262.576019,104.651825 
	C251.102585,105.030930 240.090393,105.009254 229.080490,105.157372 
	C228.043655,105.171318 227.021164,106.253990 225.992020,106.840469 
	C225.255569,107.298691 224.519119,107.756905 223.411377,107.993835 
	C221.654724,103.652214 218.029526,104.726196 215.431015,105.138214 
	C206.116638,106.615059 196.966751,106.311714 187.851608,104.012344 
	C187.890198,103.550095 187.928772,103.087852 188.115021,102.307953 
z"/>
<path fill="#CBCDCD" opacity="1.000000" stroke="none" 
	d="
M226.309753,107.006104 
	C227.021164,106.253990 228.043655,105.171318 229.080490,105.157372 
	C240.090393,105.009254 251.102585,105.030930 262.545990,105.002243 
	C263.173523,109.787323 263.369171,114.576050 263.091614,119.457504 
	C261.963165,116.742493 261.161835,113.862175 257.412781,114.475327 
	C249.979263,115.691101 242.583603,117.138535 235.172302,118.490219 
	C232.324036,114.717392 229.475769,110.944565 226.309753,107.006104 
z"/>
<path fill="#333537" opacity="1.000000" stroke="none" 
	d="
M74.930115,223.994171 
	C78.103287,220.779160 81.276459,217.564148 85.016502,214.445328 
	C96.633453,217.308502 107.734581,216.641815 118.886467,215.278503 
	C118.923264,215.520966 118.975304,216.008652 118.966492,216.457611 
	C118.967384,219.604538 118.977089,222.302505 118.949951,225.004837 
	C118.913101,225.009201 118.841698,225.029404 118.418297,225.022705 
	C103.639969,224.675385 89.285049,224.334778 74.930115,223.994171 
z"/>
<path fill="#CBCDCD" opacity="1.000000" stroke="none" 
	d="
M187.625900,104.360504 
	C196.966751,106.311714 206.116638,106.615059 215.431015,105.138214 
	C218.029526,104.726196 221.654724,103.652214 223.138489,108.191406 
	C221.436920,110.999962 219.636948,113.389656 217.140076,115.911377 
	C210.132706,115.375381 203.831787,114.585953 197.507950,114.087143 
	C193.993591,113.809929 190.440994,114.017464 186.905640,114.006531 
	C187.070480,110.907234 187.235336,107.807953 187.625900,104.360504 
z"/>
<path fill="#2D2E2F" opacity="1.000000" stroke="none" 
	d="
M74.650589,224.148529 
	C89.285049,224.334778 103.639969,224.675385 118.441879,225.401489 
	C118.576828,227.529800 118.264793,229.272629 117.498642,231.011398 
	C113.603050,230.730042 110.164047,230.262497 106.719513,230.217285 
	C100.617348,230.137192 94.504860,230.524673 88.409630,230.323868 
	C82.240341,230.120621 76.086723,229.441528 69.926247,228.970886 
	C71.407852,227.414902 72.889450,225.858902 74.650589,224.148529 
z"/>
<path fill="#646668" opacity="1.000000" stroke="none" 
	d="
M127.907555,179.404068 
	C124.845520,176.337479 121.783493,173.270874 118.393280,169.811081 
	C118.072083,168.953873 118.079048,168.489883 118.460083,168.002777 
	C122.629478,166.979935 126.375488,165.494507 130.232559,165.102890 
	C135.099701,164.608719 140.057449,165.006775 145.147797,165.312851 
	C148.439514,170.628098 153.120331,171.757294 158.587524,170.925018 
	C159.387390,171.742233 160.187271,172.559464 160.731750,173.806000 
	C158.688446,174.471802 156.628601,175.401810 155.159225,174.825760 
	C148.477783,172.206207 141.732620,174.096756 135.024979,173.978180 
	C131.134583,173.909409 128.698288,175.519714 127.907555,179.404068 
z"/>
<path fill="#272828" opacity="1.000000" stroke="none" 
	d="
M69.603790,229.028229 
	C76.086723,229.441528 82.240341,230.120621 88.409630,230.323868 
	C94.504860,230.524673 100.617348,230.137192 106.719513,230.217285 
	C110.164047,230.262497 113.603050,230.730042 117.555023,231.333450 
	C118.711853,232.789886 119.358185,233.920242 120.004524,235.050583 
	C120.004524,235.050583 120.014565,235.527649 120.011429,235.766266 
	C106.438042,236.003113 92.863342,236.197723 79.299980,235.891281 
	C74.657631,235.786362 70.043655,234.425690 65.204575,233.315491 
	C66.422066,231.690018 67.851700,230.387802 69.603790,229.028229 
z"/>
<path fill="#404347" opacity="1.000000" stroke="none" 
	d="
M64.993332,219.995773 
	C60.181553,224.548035 55.369778,229.100296 49.943455,233.663513 
	C45.150497,231.585571 41.291836,229.563828 36.933144,234.060730 
	C35.211235,235.837204 31.617050,236.985153 28.996788,233.997665 
	C30.459291,232.094803 31.921789,230.191940 33.969093,228.374069 
	C41.633694,229.700485 42.806740,229.097809 45.366684,222.999847 
	C47.152241,220.999100 48.605846,219.072769 50.298149,216.995605 
	C51.021557,216.559799 51.506275,216.274796 52.394131,215.998291 
	C56.862621,217.336441 60.927979,218.666107 64.993332,219.995773 
z"/>
<path fill="#838385" opacity="1.000000" stroke="none" 
	d="
M118.086021,168.025879 
	C118.079048,168.489883 118.072083,168.953873 118.067642,169.766052 
	C114.601151,173.382767 111.132126,176.651306 107.334526,179.677383 
	C106.712662,175.522873 103.468437,175.449585 100.861282,175.122040 
	C95.912300,174.500305 90.907761,174.320770 86.073608,173.661392 
	C86.855194,171.995132 87.489464,170.625076 88.433861,169.153992 
	C89.820137,168.026154 90.896271,166.999329 92.352097,166.145172 
	C95.152710,166.544830 97.571281,166.931519 99.995026,166.967285 
	C105.977341,167.055603 111.962029,166.982971 117.976852,167.238281 
	C118.033981,167.676315 118.060005,167.851105 118.086021,168.025879 
z"/>
<path fill="#5E5F62" opacity="1.000000" stroke="none" 
	d="
M128.082214,179.622986 
	C128.698288,175.519714 131.134583,173.909409 135.024979,173.978180 
	C141.732620,174.096756 148.477783,172.206207 155.159225,174.825760 
	C156.628601,175.401810 158.688446,174.471802 160.864899,174.069000 
	C162.557892,175.336288 163.811066,176.821152 165.179321,178.191055 
	C167.036438,180.050415 166.509155,181.571381 164.283234,182.779633 
	C162.765961,182.041443 161.652084,181.093735 160.525620,181.078537 
	C151.596436,180.958084 142.664490,180.974487 133.734512,181.063416 
	C132.462387,181.076080 131.196396,181.704742 129.927551,182.048309 
	C129.370651,181.312820 128.813766,180.577362 128.082214,179.622986 
z"/>
<path fill="#58595D" opacity="1.000000" stroke="none" 
	d="
M130.109451,182.325989 
	C131.196396,181.704742 132.462387,181.076080 133.734512,181.063416 
	C142.664490,180.974487 151.596436,180.958084 160.525620,181.078537 
	C161.652084,181.093735 162.765961,182.041443 164.020081,182.971802 
	C161.675385,186.604279 159.196304,189.822113 156.359177,192.856476 
	C152.409958,187.518021 144.515106,186.401306 137.017715,189.987869 
	C134.775589,187.526474 132.533478,185.065063 130.109451,182.325989 
z"/>
<path fill="#E8E9E9" opacity="1.000000" stroke="none" 
	d="
M222.093018,48.015572 
	C222.092270,43.579136 222.092270,39.639175 222.092270,35.455524 
	C224.253723,35.455524 226.004105,35.455524 228.092377,35.455524 
	C228.092377,45.446526 228.092377,55.460030 228.092377,65.805771 
	C226.296188,65.805771 224.431564,65.805771 222.093750,65.805771 
	C222.093750,60.025806 222.093750,54.268925 222.093018,48.015572 
z"/>
<path fill="#393D40" opacity="1.000000" stroke="none" 
	d="
M118.849670,215.036057 
	C107.734581,216.641815 96.633453,217.308502 85.311966,214.294312 
	C86.449448,212.785690 87.858337,211.524292 90.005661,210.120758 
	C100.103249,209.662369 109.462402,209.346115 118.872452,209.272736 
	C118.923347,209.515625 118.986115,210.007660 118.973984,210.426208 
	C118.924461,212.241852 118.887062,213.638962 118.849670,215.036057 
z"/>
<path fill="#404347" opacity="1.000000" stroke="none" 
	d="
M118.821556,209.029861 
	C109.462402,209.346115 100.103249,209.662369 90.280502,209.961533 
	C94.275200,205.627640 98.733498,201.310837 103.630875,197.249268 
	C108.111557,201.300095 112.687492,202.899399 118.126404,201.260315 
	C118.399376,202.403610 118.678627,203.212341 118.950165,204.437653 
	C118.902153,206.246094 118.861855,207.637970 118.821556,209.029861 
z"/>
<path fill="#6C6D6F" opacity="1.000000" stroke="none" 
	d="
M97.923225,188.965225 
	C95.847824,190.941513 93.772415,192.917816 91.119781,194.773788 
	C87.200256,194.877472 83.859818,195.244568 80.515190,195.287827 
	C76.671745,195.337509 72.824593,195.100464 69.096100,194.732666 
	C69.468422,193.977509 69.723701,193.477661 70.231583,192.767868 
	C72.649445,190.035690 74.814705,187.513443 77.332649,185.149933 
	C81.577553,185.872650 85.485336,186.348251 89.356873,187.029755 
	C92.236649,187.536682 95.069481,188.310364 97.923225,188.965225 
z"/>
<path fill="#B9BABC" opacity="1.000000" stroke="none" 
	d="
M214.155350,120.060043 
	C211.662033,123.318726 209.168716,126.577408 206.134827,129.753418 
	C205.313614,129.498230 205.032684,129.326233 204.752426,129.153122 
	C199.740448,126.056915 195.673813,129.942932 191.222137,130.984924 
	C190.123581,128.250214 189.025024,125.515488 188.240997,122.167953 
	C190.045837,121.041016 191.527802,120.113716 193.027939,120.083290 
	C200.067673,119.940491 207.112396,120.044296 214.155350,120.060043 
z"/>
<path fill="#B9BABC" opacity="1.000000" stroke="none" 
	d="
M247.862305,135.378098 
	C245.500290,132.407394 243.138260,129.436707 240.824219,125.757278 
	C242.496750,124.127754 244.153076,122.376083 245.740173,122.436714 
	C251.238831,122.646736 256.713440,123.486954 262.197174,124.087357 
	C261.016663,126.939049 259.836121,129.790741 258.011749,132.688995 
	C253.729858,131.927551 249.903687,130.442719 247.862305,135.378098 
z"/>
<path fill="#B9BABC" opacity="1.000000" stroke="none" 
	d="
M177.894806,110.976143 
	C177.968323,112.445206 178.041824,113.914268 178.129379,115.663742 
	C167.512238,115.663742 157.165283,115.663742 146.295593,115.663742 
	C146.295593,113.896393 146.295593,112.161652 146.773743,110.370781 
	C147.251907,110.314659 147.680710,110.347542 147.680710,110.347542 
	C147.680710,110.347542 148.001465,109.993561 148.001465,109.993561 
	C157.364151,109.940079 166.726837,109.886604 176.660126,110.123055 
	C177.404678,110.656616 177.626022,110.844337 177.894806,110.976143 
z"/>
<path fill="#C4C5C7" opacity="1.000000" stroke="none" 
	d="
M262.415070,123.810867 
	C256.713440,123.486954 251.238831,122.646736 245.740173,122.436714 
	C244.153076,122.376083 242.496750,124.127754 240.699310,125.466782 
	C238.741776,123.659492 236.957108,121.433975 235.172363,118.849335 
	C242.583603,117.138535 249.979263,115.691101 257.412781,114.475327 
	C261.161835,113.862175 261.963165,116.742493 262.883484,119.812973 
	C262.976715,121.228607 262.804840,122.381493 262.415070,123.810867 
z"/>
<path fill="#E8E9E9" opacity="1.000000" stroke="none" 
	d="
M196.808319,70.421562 
	C192.243484,62.804928 187.678650,55.188290 182.854034,47.138187 
	C184.711502,46.052914 186.344574,45.098743 188.313095,43.948578 
	C192.656784,51.503422 196.835114,58.770683 200.895660,66.698410 
	C199.454697,68.379768 198.131500,69.400665 196.808319,70.421562 
z"/>
<path fill="#C4C5C7" opacity="1.000000" stroke="none" 
	d="
M214.432068,119.902229 
	C207.112396,120.044296 200.067673,119.940491 193.027939,120.083290 
	C191.527802,120.113716 190.045837,121.041016 188.252594,121.789192 
	C187.545975,119.627357 187.142258,117.231468 186.822083,114.421051 
	C190.440994,114.017464 193.993591,113.809929 197.507950,114.087143 
	C203.831787,114.585953 210.132706,115.375381 216.864075,116.080643 
	C216.426254,117.326729 215.567520,118.535568 214.432068,119.902229 
z"/>
<path fill="#4F5256" opacity="1.000000" stroke="none" 
	d="
M118.132675,200.925781 
	C112.687492,202.899399 108.111557,201.300095 103.952271,197.144531 
	C108.758095,192.301239 113.681595,187.817917 118.747726,183.967621 
	C118.789543,186.833542 118.691277,189.066528 118.587326,191.299255 
	C118.437943,194.508194 118.284431,197.716949 118.132675,200.925781 
z"/>
<path fill="#4F5256" opacity="1.000000" stroke="none" 
	d="
M137.166656,190.285507 
	C144.515106,186.401306 152.409958,187.518021 156.087982,193.073822 
	C153.868851,196.618301 151.562881,199.761993 148.834641,203.481369 
	C144.701492,198.853348 141.008545,194.718246 137.166656,190.285507 
z"/>
<path fill="#D5D7D6" opacity="1.000000" stroke="none" 
	d="
M177.600311,89.171616 
	C170.267578,85.027908 162.934845,80.884193 155.306900,76.573654 
	C156.413574,74.654770 157.295929,73.124847 158.395584,71.218124 
	C166.065765,75.674973 173.482483,79.984550 180.827362,84.800392 
	C179.703781,86.594978 178.652039,87.883301 177.600311,89.171616 
z"/>
<path fill="#717274" opacity="1.000000" stroke="none" 
	d="
M98.211365,188.818634 
	C95.069481,188.310364 92.236649,187.536682 89.356873,187.029755 
	C85.485336,186.348251 81.577553,185.872650 77.449287,184.895508 
	C77.467339,183.984482 77.721436,183.486603 78.226013,182.784836 
	C79.355049,181.142700 80.233604,179.704483 81.424683,178.200043 
	C82.148956,178.023438 82.560699,177.913025 83.166527,178.149582 
	C84.192665,178.972366 84.988266,179.770447 85.862938,179.869354 
	C90.118027,180.350540 94.426109,180.442627 98.646858,181.107666 
	C100.259056,181.361694 101.688446,182.776001 103.201157,183.661545 
	C101.633934,185.331711 100.066711,187.001877 98.211365,188.818634 
z"/>
<path fill="#E8E9E9" opacity="1.000000" stroke="none" 
	d="
M249.861374,65.690552 
	C253.924210,58.545116 257.987061,51.399681 262.204559,43.982201 
	C264.089264,45.019890 265.614197,45.859501 267.670105,46.991459 
	C263.356812,54.362965 259.158081,61.538715 254.358688,68.877838 
	C252.459137,67.924324 251.160248,66.807442 249.861374,65.690552 
z"/>
<path fill="#6C6D6F" opacity="1.000000" stroke="none" 
	d="
M118.126404,201.260315 
	C118.284431,197.716949 118.437943,194.508194 118.587326,191.299255 
	C118.691277,189.066528 118.789543,186.833542 118.963242,184.191406 
	C124.144157,189.576553 129.252167,195.370987 134.034546,201.522034 
	C128.791901,202.592804 123.874893,203.306946 118.957886,204.021088 
	C118.678627,203.212341 118.399376,202.403610 118.126404,201.260315 
z"/>
<path fill="#D5D7D6" opacity="1.000000" stroke="none" 
	d="
M270.010132,84.263969 
	C277.232635,79.948090 284.455109,75.632210 292.019165,71.112213 
	C293.108276,72.925285 294.015778,74.435997 295.200012,76.407394 
	C287.997833,80.654030 280.942291,84.814217 273.242004,88.876518 
	C271.734924,87.273743 270.872528,85.768852 270.010132,84.263969 
z"/>
<path fill="#58595D" opacity="1.000000" stroke="none" 
	d="
M118.886459,215.278503 
	C118.887062,213.638962 118.924461,212.241852 119.406700,210.424957 
	C126.807610,211.129395 133.740265,212.034698 140.127640,207.838043 
	C143.189056,209.589355 143.232681,211.464813 140.728668,213.931503 
	C138.533310,216.094162 136.698532,218.622864 134.339569,220.795914 
	C132.497421,219.524506 131.156982,217.887482 129.514526,217.485962 
	C126.085945,216.647873 122.497864,216.462296 118.975304,216.008636 
	C118.975304,216.008652 118.923264,215.520966 118.886459,215.278503 
z"/>
<path fill="#646668" opacity="1.000000" stroke="none" 
	d="
M68.979050,194.987961 
	C72.824593,195.100464 76.671745,195.337509 80.515190,195.287827 
	C83.859818,195.244568 87.200256,194.877472 90.832222,194.945892 
	C87.581612,198.698853 84.041328,202.159393 79.953125,205.547470 
	C75.747543,200.606262 69.780144,201.790802 65.082062,199.710281 
	C65.434128,198.946915 65.665947,198.437164 66.067093,197.671021 
	C67.150627,196.605743 68.064835,195.796844 68.979050,194.987961 
z"/>
<path fill="#58595D" opacity="1.000000" stroke="none" 
	d="
M64.961830,199.963882 
	C69.780144,201.790802 75.747543,200.606262 79.657303,205.699738 
	C78.486511,207.236572 77.063606,208.548660 75.185928,209.713318 
	C72.467957,209.549454 70.202950,209.468124 67.941978,209.531403 
	C64.287468,209.633667 60.635616,209.831024 57.126511,209.722382 
	C57.834145,208.625076 58.397907,207.793625 59.210983,206.750137 
	C61.294140,204.346710 63.127987,202.155289 64.961830,199.963882 
z"/>
<path fill="#646668" opacity="1.000000" stroke="none" 
	d="
M139.961151,207.558395 
	C133.740265,212.034698 126.807610,211.129395 119.418823,210.006409 
	C118.986115,210.007660 118.923347,209.515625 118.872452,209.272736 
	C118.861855,207.637970 118.902153,206.246094 118.950165,204.437653 
	C123.874893,203.306946 128.791901,202.592804 134.220123,201.825928 
	C136.419113,203.608383 138.106888,205.443573 139.961151,207.558395 
z"/>
<path fill="#7B7B7D" opacity="1.000000" stroke="none" 
	d="
M159.993652,213.994537 
	C156.053284,219.059464 152.428268,224.428085 148.001663,229.024750 
	C146.450424,230.635574 142.928528,230.348633 139.830704,230.897888 
	C144.347092,224.306107 149.339264,217.744720 154.780197,211.307098 
	C156.817184,212.285400 158.405426,213.139969 159.993652,213.994537 
z"/>
<path fill="#B9BABC" opacity="1.000000" stroke="none" 
	d="
M302.784332,115.678680 
	C302.784332,115.678680 302.494873,115.838623 302.240082,115.565536 
	C301.709106,115.428177 301.432922,115.563896 301.156738,115.699615 
	C293.741150,115.766785 286.325592,115.833961 278.517639,115.460953 
	C278.415985,113.356682 278.706757,111.692589 278.997498,110.028503 
	C286.689056,109.955421 294.380585,109.882339 302.676208,110.115616 
	C303.563354,110.624466 303.846405,110.826965 304.129517,111.029465 
	C304.196869,111.768562 304.264252,112.507668 303.935333,113.832657 
	C303.287445,114.838577 303.035889,115.258621 302.784332,115.678680 
z"/>
<path fill="#4F5256" opacity="1.000000" stroke="none" 
	d="
M56.982643,209.988235 
	C60.635616,209.831024 64.287468,209.633667 67.941978,209.531403 
	C70.202950,209.468124 72.467957,209.549454 74.903473,209.880981 
	C71.905708,213.350586 68.735619,216.505081 65.279434,219.827667 
	C60.927979,218.666107 56.862621,217.336441 52.543243,215.722046 
	C53.186329,214.285233 54.083443,213.133118 55.206921,211.808823 
	C55.949738,211.087173 56.466194,210.537704 56.982643,209.988235 
z"/>
<path fill="#7B7B7D" opacity="1.000000" stroke="none" 
	d="
M103.516891,183.559677 
	C101.688446,182.776001 100.259056,181.361694 98.646858,181.107666 
	C94.426109,180.442627 90.118027,180.350540 85.862938,179.869354 
	C84.988266,179.770447 84.192665,178.972366 83.296356,177.876221 
	C84.130165,176.156479 85.028229,175.057022 85.926292,173.957581 
	C90.907761,174.320770 95.912300,174.500305 100.861282,175.122040 
	C103.468437,175.449585 106.712662,175.522873 107.031448,179.834869 
	C105.982178,181.309143 104.907402,182.383484 103.516891,183.559677 
z"/>
<path fill="#333537" opacity="1.000000" stroke="none" 
	d="
M28.745489,234.195007 
	C31.617050,236.985153 35.211235,235.837204 36.933144,234.060730 
	C41.291836,229.563828 45.150497,231.585571 49.653114,233.824478 
	C47.863903,235.890091 45.750484,237.805710 42.963821,239.813782 
	C40.539680,239.862366 38.786060,239.865723 37.038429,239.765106 
	C33.019650,239.533768 29.003786,239.251801 24.986740,238.990387 
	C26.155891,237.457718 27.325043,235.925034 28.745489,234.195007 
z"/>
<path fill="#969799" opacity="1.000000" stroke="none" 
	d="
M164.966492,143.934738 
	C170.723618,140.435150 176.480728,136.935577 182.589691,133.222137 
	C183.703537,135.142273 184.586121,136.663712 185.741989,138.656265 
	C180.220337,141.832199 174.959702,144.858002 169.274597,147.630188 
	C167.555588,146.229309 166.261047,145.082031 164.966492,143.934738 
z"/>
<path fill="#ADAEAF" opacity="1.000000" stroke="none" 
	d="
M91.972404,165.972488 
	C90.896271,166.999329 89.820137,168.026154 88.185623,168.837112 
	C85.902107,168.035980 84.176964,167.450714 82.451828,166.865463 
	C86.052490,162.274323 89.653152,157.683182 93.832306,153.206528 
	C96.590126,153.536804 98.769447,153.752563 100.833275,154.247589 
	C100.147346,155.353653 99.576912,156.180496 98.747696,157.213684 
	C96.316742,160.270844 94.144569,163.121658 91.972404,165.972488 
z"/>
<path fill="#B1B2B4" opacity="1.000000" stroke="none" 
	d="
M235.447937,135.185364 
	C238.611893,139.154633 241.775864,143.123901 244.879303,147.712067 
	C243.243729,149.205109 241.668671,150.079269 240.093628,150.953415 
	C236.747131,146.709656 233.400620,142.465881 230.150665,137.567963 
	C231.980789,136.337646 233.714371,135.761505 235.447937,135.185364 
z"/>
<path fill="#C4C5C7" opacity="1.000000" stroke="none" 
	d="
M101.849014,142.699280 
	C105.350090,138.196716 108.851166,133.694153 112.709625,129.369888 
	C114.697327,130.690338 116.327644,131.832474 117.966431,133.223251 
	C117.974892,133.471893 117.979713,133.968887 118.012680,133.970062 
	C118.045639,133.971252 118.053459,134.036758 117.756393,134.193970 
	C114.309296,137.902908 111.159271,141.454620 107.607948,145.003342 
	C105.420769,144.233307 103.634888,143.466293 101.849014,142.699280 
z"/>
<path fill="#B9BABC" opacity="1.000000" stroke="none" 
	d="
M208.815933,151.912979 
	C205.330246,156.428848 201.844559,160.944717 197.793671,165.502991 
	C195.400986,165.036179 193.573547,164.526962 191.746094,164.017731 
	C195.058060,159.704147 198.370041,155.390549 202.371124,150.962402 
	C204.978821,151.202896 206.897369,151.557938 208.815933,151.912979 
z"/>
<path fill="#7B7B7D" opacity="1.000000" stroke="none" 
	d="
M279.890015,192.678879 
	C277.324188,193.253708 275.426239,197.736343 271.931213,193.885895 
	C271.511993,193.180176 271.238953,193.071060 270.965881,192.961945 
	C270.965881,192.961960 270.972290,193.030594 271.065674,192.687698 
	C270.774963,192.216797 270.390900,192.088806 270.006836,191.960815 
	C270.006836,191.960815 269.999268,192.002274 270.019531,191.998398 
	C268.604248,189.441605 267.168732,186.888702 265.889648,183.690643 
	C267.065033,181.637970 268.083923,180.230438 269.102783,178.822906 
	C272.657196,183.336517 276.211578,187.850128 279.890015,192.678879 
z"/>
<path fill="#404347" opacity="1.000000" stroke="none" 
	d="
M120.366364,235.000717 
	C119.358185,233.920242 118.711853,232.789886 118.009132,231.337494 
	C118.264793,229.272629 118.576828,227.529800 118.865280,225.408203 
	C118.841698,225.029404 118.913101,225.009201 119.336052,224.946640 
	C124.198517,224.269958 128.638016,223.655838 133.077530,223.041718 
	C129.339355,227.403671 127.303963,233.531357 120.366364,235.000717 
z"/>
<path fill="#222323" opacity="1.000000" stroke="none" 
	d="
M30.015106,252.014191 
	C25.744482,259.763947 18.670410,258.161652 10.509772,257.568909 
	C12.490484,254.736176 13.993254,252.586975 16.070778,250.476852 
	C21.102057,251.015350 25.558580,251.514771 30.015106,252.014191 
z"/>
<path fill="#969799" opacity="1.000000" stroke="none" 
	d="
M278.820251,146.502365 
	C274.342957,144.007401 269.865662,141.512436 265.002014,138.802155 
	C265.952240,136.966370 266.741241,135.442123 267.864166,133.272751 
	C272.905182,136.265350 277.642883,139.077896 282.594482,142.440796 
	C281.478973,144.161545 280.149597,145.331955 278.820251,146.502365 
z"/>
<path fill="#B1B2B4" opacity="1.000000" stroke="none" 
	d="
M191.299866,131.310318 
	C195.673813,129.942932 199.740448,126.056915 204.752426,129.153122 
	C205.032684,129.326233 205.313614,129.498230 205.850159,129.956757 
	C203.678772,133.540390 201.251434,136.837997 198.262512,140.898575 
	C195.761383,137.533600 193.569473,134.584656 191.299866,131.310318 
z"/>
<path fill="#2D2E2F" opacity="1.000000" stroke="none" 
	d="
M24.742456,239.195480 
	C29.003786,239.251801 33.019650,239.533768 37.038429,239.765106 
	C38.786060,239.865723 40.539680,239.862366 42.678391,239.980560 
	C41.238174,241.933517 39.410152,243.812134 36.919754,245.683868 
	C32.865261,245.612869 29.460842,245.698792 26.086128,245.422241 
	C24.360415,245.280823 22.687906,244.490173 20.991352,243.992966 
	C22.160292,242.462173 23.329233,240.931366 24.742456,239.195480 
z"/>
<path fill="#272828" opacity="1.000000" stroke="none" 
	d="
M20.744549,244.202545 
	C22.687906,244.490173 24.360415,245.280823 26.086128,245.422241 
	C29.460842,245.698792 32.865261,245.612869 36.633614,245.843994 
	C34.870934,247.903778 32.732021,249.796570 30.304111,251.851776 
	C25.558580,251.514771 21.102057,251.015350 16.326023,250.260666 
	C17.503590,248.140976 19.000668,246.276550 20.744549,244.202545 
z"/>
<path fill="#A1A3A4" opacity="1.000000" stroke="none" 
	d="
M190.846085,174.912750 
	C188.091446,178.492050 185.336807,182.071335 181.881622,185.812012 
	C179.220871,185.571655 177.260635,185.169891 175.300415,184.768143 
	C178.228989,180.974289 181.157578,177.180435 184.739136,173.218536 
	C187.210083,173.671234 189.028091,174.291992 190.846085,174.912750 
z"/>
<path fill="#4F5256" opacity="1.000000" stroke="none" 
	d="
M133.278305,222.885559 
	C128.638016,223.655838 124.198517,224.269958 119.372902,224.942276 
	C118.977089,222.302505 118.967384,219.604538 118.966492,216.457611 
	C122.497864,216.462296 126.085945,216.647873 129.514526,217.485962 
	C131.156982,217.887482 132.497421,219.524506 134.062714,221.003021 
	C133.926895,221.845871 133.702988,222.287628 133.278305,222.885559 
z"/>
<path fill="#8C8D8F" opacity="1.000000" stroke="none" 
	d="
M279.059570,146.718689 
	C280.149597,145.331955 281.478973,144.161545 282.883087,142.665436 
	C286.864075,144.478958 290.770264,146.618164 295.020020,148.945511 
	C294.117767,150.759933 293.346588,152.310791 292.246429,154.523178 
	C287.731995,151.877411 283.515442,149.406219 279.059570,146.718689 
z"/>
<path fill="#CBCDCD" opacity="1.000000" stroke="none" 
	d="
M223.801117,132.905396 
	C221.121399,136.300125 218.441666,139.694870 215.348923,142.989441 
	C213.584564,141.846451 212.233246,140.803589 210.881912,139.760742 
	C213.909332,135.755905 216.936752,131.751068 220.361908,127.905960 
	C221.773468,129.678925 222.787292,131.292160 223.801117,132.905396 
z"/>
<path fill="#8C8D8F" opacity="1.000000" stroke="none" 
	d="
M174.105835,195.268234 
	C171.339020,198.510651 168.572189,201.753052 165.057892,204.964355 
	C162.989670,204.552078 161.668900,204.170898 160.348145,203.789703 
	C163.308182,199.947449 166.268234,196.105194 169.821381,192.231781 
	C171.644928,193.223145 172.875381,194.245697 174.105835,195.268234 
z"/>
<path fill="#7B7B7D" opacity="1.000000" stroke="none" 
	d="
M65.082062,199.710281 
	C63.127987,202.155289 61.294140,204.346710 58.863472,206.706207 
	C56.499847,205.900192 54.733040,204.926117 52.966232,203.952026 
	C55.441311,200.727112 57.916386,197.502197 60.833958,194.383453 
	C62.816895,195.635544 64.357330,196.781479 65.897774,197.927399 
	C65.665947,198.437164 65.434128,198.946915 65.082062,199.710281 
z"/>
<path fill="#8C8D8F" opacity="1.000000" stroke="none" 
	d="
M257.616547,163.804932 
	C260.353271,167.291122 263.089966,170.777313 265.708862,174.859741 
	C264.261505,176.601913 262.931915,177.747864 261.602325,178.893799 
	C260.452057,177.511780 259.301758,176.129745 258.165833,174.152985 
	C258.131866,172.899445 258.083557,172.240616 258.035278,171.581787 
	C257.592590,171.926804 257.149933,172.271820 256.707275,172.616821 
	C255.794739,171.496933 254.882202,170.377029 253.979218,168.546783 
	C255.198029,166.492599 256.407288,165.148758 257.616547,163.804932 
z"/>
<path fill="#B9BABC" opacity="1.000000" stroke="none" 
	d="
M101.556847,142.876160 
	C103.634888,143.466293 105.420769,144.233307 107.471519,145.307892 
	C106.161591,147.746765 104.586792,149.878113 102.825867,152.226807 
	C102.076073,152.952194 101.512421,153.460266 100.948769,153.968338 
	C98.769447,153.752563 96.590126,153.536804 94.124023,153.033493 
	C96.313049,149.514984 98.788864,146.284012 101.556847,142.876160 
z"/>
<path fill="#CBCDCD" opacity="1.000000" stroke="none" 
	d="
M117.957962,132.974609 
	C116.327644,131.832474 114.697327,130.690338 113.003090,129.200012 
	C114.679070,126.506889 116.418976,124.161934 118.478119,121.386719 
	C121.004517,124.552887 123.225761,127.336639 125.184654,130.491837 
	C122.600853,131.567047 120.279404,132.270828 117.957962,132.974609 
z"/>
<path fill="#C4C5C7" opacity="1.000000" stroke="none" 
	d="
M210.584778,139.927353 
	C212.233246,140.803589 213.584564,141.846451 215.115128,143.244080 
	C213.310165,146.232529 211.325958,148.866196 209.078842,151.706421 
	C206.897369,151.557938 204.978821,151.202896 202.621948,150.785278 
	C204.884995,147.179779 207.586319,143.636871 210.584778,139.927353 
z"/>
<path fill="#969799" opacity="1.000000" stroke="none" 
	d="
M257.447998,163.491516 
	C256.407288,165.148758 255.198029,166.492599 253.924072,168.243988 
	C251.266083,165.448029 248.672775,162.244522 246.055405,158.375275 
	C247.357971,156.464996 248.684601,155.220444 250.011246,153.975876 
	C252.433975,157.043289 254.856720,160.110703 257.447998,163.491516 
z"/>
<path fill="#8C8D8F" opacity="1.000000" stroke="none" 
	d="
M77.975533,182.988739 
	C77.721436,183.486603 77.467339,183.984482 77.096603,184.736786 
	C74.814705,187.513443 72.649445,190.035690 69.930664,192.631195 
	C67.889221,191.419952 66.401276,190.135452 64.913338,188.850952 
	C66.605431,186.635300 68.297523,184.419662 70.638947,182.173340 
	C73.517349,182.424683 75.746445,182.706711 77.975533,182.988739 
z"/>
<path fill="#ADAEAF" opacity="1.000000" stroke="none" 
	d="
M131.651718,137.858368 
	C133.954361,140.609863 136.257019,143.361359 138.256882,146.488251 
	C135.962463,147.306091 133.970856,147.748520 131.704956,147.985336 
	C129.270874,145.193741 127.111038,142.607773 125.299469,139.864410 
	C127.649063,139.090820 129.650391,138.474594 131.651718,137.858368 
z"/>
<path fill="#8C8D8F" opacity="1.000000" stroke="none" 
	d="
M164.619568,144.010986 
	C166.261047,145.082031 167.555588,146.229309 168.927567,147.699738 
	C165.690674,150.080902 162.376358,152.138916 158.646271,154.455109 
	C157.529449,152.711029 156.605026,151.267410 155.322159,149.264053 
	C158.458435,147.450073 161.365555,145.768646 164.619568,144.010986 
z"/>
<path fill="#D0D2D1" opacity="1.000000" stroke="none" 
	d="
M224.027283,132.828857 
	C222.787292,131.292160 221.773468,129.678925 220.647705,127.642403 
	C221.894028,125.419533 223.252258,123.619942 225.042984,121.247337 
	C227.559235,124.523903 229.795258,127.435555 231.771393,130.678040 
	C229.700638,131.585922 227.889755,132.163010 226.078873,132.740082 
	C225.849899,132.661438 225.620911,132.582794 225.060272,132.652161 
	C224.728622,132.800201 224.253464,132.752304 224.027283,132.828857 
z"/>
<path fill="#ADAEAF" opacity="1.000000" stroke="none" 
	d="
M191.097214,174.692963 
	C189.028091,174.291992 187.210083,173.671234 185.005859,173.054855 
	C186.810013,170.153427 189.000412,167.247620 191.468445,164.179779 
	C193.573547,164.526962 195.400986,165.036179 197.534943,165.713287 
	C195.677078,168.745178 193.512711,171.609177 191.097214,174.692963 
z"/>
<path fill="#A1A3A4" opacity="1.000000" stroke="none" 
	d="
M82.203430,167.050415 
	C84.176964,167.450714 85.902107,168.035980 87.875488,168.938141 
	C87.489464,170.625076 86.855194,171.995132 86.073608,173.661392 
	C85.028229,175.057022 84.130165,176.156479 83.102264,177.529266 
	C82.560699,177.913025 82.148956,178.023438 81.260056,177.882355 
	C79.496086,176.374008 78.209267,175.117188 76.922440,173.860367 
	C78.599976,171.652039 80.277504,169.443695 82.203430,167.050415 
z"/>
<path fill="#8C8D8F" opacity="1.000000" stroke="none" 
	d="
M144.676224,153.839859 
	C147.102615,156.709335 149.529007,159.578796 151.685333,162.740082 
	C149.276886,163.355423 147.138489,163.678925 144.714859,163.829727 
	C142.277313,161.109604 140.125000,158.562164 138.349579,155.952301 
	C140.709717,155.206528 142.692978,154.523193 144.676224,153.839859 
z"/>
<path fill="#717274" opacity="1.000000" stroke="none" 
	d="
M145.000107,164.002441 
	C147.138489,163.678925 149.276886,163.355423 151.856995,163.048065 
	C154.301987,165.460541 156.305252,167.856842 158.448029,170.589081 
	C153.120331,171.757294 148.439514,170.628098 145.154541,165.058380 
	C144.993134,164.341476 144.996628,164.171951 145.000107,164.002441 
z"/>
<path fill="#969799" opacity="1.000000" stroke="none" 
	d="
M144.519623,153.522186 
	C142.692978,154.523193 140.709717,155.206528 138.088379,155.752136 
	C135.626602,153.139938 133.802917,150.665436 131.979233,148.190948 
	C133.970856,147.748520 135.962463,147.306091 138.423157,146.809586 
	C140.715820,148.905182 142.539413,151.054855 144.519623,153.522186 
z"/>
<path fill="#B9BABC" opacity="1.000000" stroke="none" 
	d="
M131.474182,137.542694 
	C129.650391,138.474594 127.649063,139.090820 125.008713,139.703308 
	C122.239693,137.789337 120.109703,135.879105 117.979713,133.968887 
	C117.979713,133.968887 117.974892,133.471893 117.966431,133.223251 
	C120.279404,132.270828 122.600853,131.567047 125.353241,130.810013 
	C127.621674,132.913498 129.459167,135.070267 131.474182,137.542694 
z"/>
<path fill="#969799" opacity="1.000000" stroke="none" 
	d="
M174.412628,195.123535 
	C172.875381,194.245697 171.644928,193.223145 170.099854,192.053650 
	C171.464844,189.654083 173.144455,187.401474 175.062241,184.958496 
	C177.260635,185.169891 179.220871,185.571655 181.604309,185.995758 
	C179.591492,189.005005 177.155472,191.991913 174.412628,195.123535 
z"/>
<path fill="#838385" opacity="1.000000" stroke="none" 
	d="
M160.104538,203.970596 
	C161.668900,204.170898 162.989670,204.552078 164.715179,205.031418 
	C163.521378,207.888367 161.922852,210.647186 160.158997,213.700256 
	C158.405426,213.139969 156.817184,212.285400 155.058426,211.114990 
	C156.545593,208.583252 158.203262,206.367371 160.104538,203.970596 
z"/>
<path fill="#ADAEAF" opacity="1.000000" stroke="none" 
	d="
M247.953568,135.685928 
	C249.903687,130.442719 253.729858,131.927551 257.737671,132.896332 
	C256.214813,135.640335 254.322235,138.223587 252.150635,141.187668 
	C250.442764,139.027191 249.243805,137.510483 247.953568,135.685928 
z"/>
<path fill="#4F5256" opacity="1.000000" stroke="none" 
	d="
M45.034737,223.074280 
	C42.806740,229.097809 41.633694,229.700485 34.249260,228.203308 
	C35.366421,226.058594 36.788216,224.169678 38.904884,222.124695 
	C41.411419,222.337189 43.223080,222.705734 45.034737,223.074280 
z"/>
<path fill="#969799" opacity="1.000000" stroke="none" 
	d="
M76.633308,174.033051 
	C78.209267,175.117188 79.496086,176.374008 80.947533,177.948547 
	C80.233604,179.704483 79.355049,181.142700 78.226013,182.784836 
	C75.746445,182.706711 73.517349,182.424683 70.889931,181.980591 
	C72.442451,179.280930 74.393311,176.743332 76.633308,174.033051 
z"/>
<path fill="#58595D" opacity="1.000000" stroke="none" 
	d="
M45.366684,222.999847 
	C43.223080,222.705734 41.411419,222.337189 39.172592,221.947586 
	C40.632534,219.388779 42.519642,216.851028 44.906311,214.392822 
	C46.957066,215.363708 48.508259,216.255066 50.059456,217.146439 
	C48.605846,219.072769 47.152241,220.999100 45.366684,222.999847 
z"/>
<path fill="#A1A3A4" opacity="1.000000" stroke="none" 
	d="
M249.896759,153.665009 
	C248.684601,155.220444 247.357971,156.464996 245.959412,158.062805 
	C244.028320,156.138733 242.169174,153.861389 240.201828,151.268738 
	C241.668671,150.079269 243.243729,149.205109 244.992188,148.028366 
	C246.704483,149.601898 248.243378,151.478027 249.896759,153.665009 
z"/>
<path fill="#404347" opacity="1.000000" stroke="none" 
	d="
M207.040863,191.037659 
	C207.834015,190.105591 208.627167,189.173523 210.079971,188.123199 
	C212.872620,188.718353 215.005600,189.431732 217.138580,190.145126 
	C216.293442,191.677414 215.448303,193.209702 214.014236,194.753204 
	C211.297165,193.522186 209.169006,192.279922 207.040863,191.037659 
z"/>
<path fill="#6C6D6F" opacity="1.000000" stroke="none" 
	d="
M52.677200,204.122864 
	C54.733040,204.926117 56.499847,205.900192 58.614166,206.918213 
	C58.397907,207.793625 57.834145,208.625076 57.126514,209.722382 
	C56.466194,210.537704 55.949738,211.087173 54.866886,211.658829 
	C52.303482,211.047852 50.306477,210.414703 48.309471,209.781540 
	C49.669041,207.952271 51.028606,206.123001 52.677200,204.122864 
z"/>
<path fill="#646668" opacity="1.000000" stroke="none" 
	d="
M48.076969,209.943939 
	C50.306477,210.414703 52.303482,211.047852 54.640522,211.831009 
	C54.083443,213.133118 53.186329,214.285233 52.140106,215.713562 
	C51.506275,216.274796 51.021557,216.559799 50.298149,216.995605 
	C48.508259,216.255066 46.957066,215.363708 45.187244,214.214279 
	C45.927235,212.672928 46.885849,211.389633 48.076969,209.943939 
z"/>
<path fill="#838385" opacity="1.000000" stroke="none" 
	d="
M64.638283,189.024719 
	C66.401276,190.135452 67.889221,191.419952 69.678070,192.841125 
	C69.723701,193.477661 69.468422,193.977509 69.096092,194.732666 
	C68.064835,195.796844 67.150627,196.605743 66.067093,197.671021 
	C64.357330,196.781479 62.816895,195.635544 61.116318,194.202667 
	C62.091866,192.343307 63.227547,190.770905 64.638283,189.024719 
z"/>
<path fill="#272828" opacity="1.000000" stroke="none" 
	d="
M206.805328,191.241455 
	C209.169006,192.279922 211.297165,193.522186 213.723618,194.934082 
	C210.982132,199.929901 207.717072,197.192307 204.201904,195.159607 
	C204.805939,193.769272 205.687881,192.607254 206.805328,191.241455 
z"/>
<path fill="#5E5F62" opacity="1.000000" stroke="none" 
	d="
M217.444153,190.105789 
	C215.005600,189.431732 212.872620,188.718353 210.353210,187.975006 
	C212.439529,183.155121 215.691345,183.171387 220.093536,188.391510 
	C219.410080,189.214172 218.579895,189.640305 217.444153,190.105789 
z"/>
<path fill="#838385" opacity="1.000000" stroke="none" 
	d="
M261.717438,179.175415 
	C262.931915,177.747864 264.261505,176.601913 265.831055,175.173523 
	C267.011292,176.004791 267.951599,177.118484 268.997314,178.527557 
	C268.083923,180.230438 267.065033,181.637970 265.817017,183.367554 
	C264.336090,182.278763 263.084320,180.867905 261.717438,179.175415 
z"/>
<path fill="#D0D2D1" opacity="1.000000" stroke="none" 
	d="
M269.689423,84.364120 
	C270.872528,85.768852 271.734924,87.273743 272.903381,88.940369 
	C271.592743,90.168365 269.976013,91.234634 268.081268,92.484253 
	C266.945374,90.700592 266.002594,89.220169 264.791626,87.318634 
	C266.382904,86.326279 267.875793,85.395271 269.689423,84.364120 
z"/>
<path fill="#C4C5C7" opacity="1.000000" stroke="none" 
	d="
M278.575928,109.949463 
	C278.706757,111.692589 278.415985,113.356682 278.055145,115.375351 
	C276.926666,115.789200 275.868286,115.848473 274.218323,115.706985 
	C273.312256,115.397972 272.997772,115.289726 272.683258,115.181488 
	C272.573914,113.617134 272.464569,112.052780 272.312042,109.870422 
	C274.445251,109.870422 276.299835,109.870422 278.575928,109.949463 
z"/>
<path fill="#E1E2E1" opacity="1.000000" stroke="none" 
	d="
M249.579895,65.907585 
	C251.160248,66.807442 252.459137,67.924324 254.134796,69.117134 
	C253.645538,70.761681 252.779495,72.330292 251.798676,74.106827 
	C249.920074,73.006538 248.397919,72.115013 246.605789,71.065369 
	C247.591309,69.257034 248.444870,67.690826 249.579895,65.907585 
z"/>
<path fill="#CBCDCD" opacity="1.000000" stroke="none" 
	d="
M226.193039,133.064758 
	C227.889755,132.163010 229.700638,131.585922 231.894318,131.009552 
	C233.231079,132.192871 234.185059,133.375504 235.293488,134.871735 
	C233.714371,135.761505 231.980789,136.337646 230.052002,137.264954 
	C228.673584,136.207214 227.490402,134.798325 226.193039,133.064758 
z"/>
<path fill="#D0D2D1" opacity="1.000000" stroke="none" 
	d="
M177.824310,89.448853 
	C178.652039,87.883301 179.703781,86.594978 181.039948,85.080017 
	C182.600433,85.516251 183.876465,86.179131 185.434448,86.988472 
	C184.518875,88.837921 183.748962,90.393135 182.794189,92.321739 
	C181.073029,91.380386 179.560684,90.553238 177.824310,89.448853 
z"/>
<path fill="#E1E2E1" opacity="1.000000" stroke="none" 
	d="
M196.873413,70.748962 
	C198.131500,69.400665 199.454697,68.379768 200.958405,67.037384 
	C202.001511,68.032516 202.864059,69.349129 203.903076,70.935089 
	C202.279907,72.020966 200.853668,72.975090 199.099792,74.148407 
	C198.336914,73.064056 197.637711,72.070206 196.873413,70.748962 
z"/>
<path fill="#838385" opacity="1.000000" stroke="none" 
	d="
M256.794922,172.852158 
	C257.149933,172.271820 257.592590,171.926804 258.035278,171.581787 
	C258.083557,172.240616 258.131866,172.899445 258.053894,173.837921 
	C257.579285,173.774200 257.230927,173.430847 256.794922,172.852158 
z"/>
<path fill="#CBCDCD" opacity="1.000000" stroke="none" 
	d="
M147.749481,109.934052 
	C148.001465,109.993561 147.680710,110.347542 147.680710,110.347542 
	C147.680710,110.347542 147.251907,110.314659 147.137817,110.199158 
	C147.181671,110.013947 147.339584,109.944244 147.749481,109.934052 
z"/>
<path fill="#A1A3A4" opacity="1.000000" stroke="none" 
	d="
M272.786163,115.461105 
	C272.997772,115.289726 273.312256,115.397972 273.821289,115.669235 
	C273.640198,115.801743 273.264648,115.771233 272.786163,115.461105 
z"/>
<path fill="#CBCDCD" opacity="1.000000" stroke="none" 
	d="
M177.916595,110.698563 
	C177.626022,110.844337 177.404678,110.656616 177.120056,110.223412 
	C177.319031,110.162895 177.628708,110.291939 177.916595,110.698563 
z"/>
<path fill="#C4C5C7" opacity="1.000000" stroke="none" 
	d="
M303.234680,115.657669 
	C303.035889,115.258621 303.287445,114.838577 303.827362,114.191414 
	C303.972137,114.521759 303.828613,115.079208 303.234680,115.657669 
z"/>
<path fill="#C4C5C7" opacity="1.000000" stroke="none" 
	d="
M301.417664,115.759872 
	C301.432922,115.563896 301.709106,115.428177 302.091949,115.492111 
	C302.025299,115.734550 301.851959,115.777328 301.417664,115.759872 
z"/>
<path fill="#C4C5C7" opacity="1.000000" stroke="none" 
	d="
M304.132141,110.704536 
	C303.846405,110.826965 303.563354,110.624466 303.137848,110.201241 
	C303.375214,110.113548 303.755005,110.246582 304.132141,110.704536 
z"/>
<path fill="#161616" opacity="1.000000" stroke="none" 
	d="
M271.043701,193.177017 
	C271.238953,193.071060 271.511993,193.180176 271.842682,193.549866 
	C271.567139,193.807907 271.307556,193.668457 271.043701,193.177017 
z"/>
<path fill="#161616" opacity="1.000000" stroke="none" 
	d="
M270.015137,192.252365 
	C270.390900,192.088806 270.774963,192.216797 271.100098,192.687042 
	C270.701965,192.867493 270.362701,192.705704 270.015137,192.252365 
z"/>
<path fill="#6C6D6F" opacity="1.000000" stroke="none" 
	d="
M118.012680,133.970062 
	C120.109703,135.879105 122.239693,137.789337 124.660446,139.860672 
	C127.111038,142.607773 129.270874,145.193741 131.704956,147.985336 
	C133.802917,150.665436 135.626602,153.139938 137.711487,155.814575 
	C140.125000,158.562164 142.277313,161.109604 144.714859,163.829742 
	C144.996628,164.171951 144.993134,164.341476 144.982864,164.765457 
	C140.057449,165.006775 135.099701,164.608719 130.232559,165.102890 
	C126.375488,165.494507 122.629478,166.979935 118.460083,168.002777 
	C118.060005,167.851105 118.033981,167.676315 117.992065,166.810287 
	C117.955978,164.401627 117.935776,162.684189 117.940102,160.524597 
	C117.940727,157.710556 117.916824,155.338654 117.924538,152.502380 
	C117.988594,146.037567 118.021027,140.037170 118.053459,134.036758 
	C118.053459,134.036758 118.045639,133.971252 118.012680,133.970062 
z"/>
<path fill="#8C8D8F" opacity="1.000000" stroke="none" 
	d="
M117.915573,160.966751 
	C117.935776,162.684189 117.955978,164.401627 117.960968,166.547058 
	C111.962029,166.982971 105.977341,167.055603 99.995026,166.967285 
	C97.571281,166.931519 95.152710,166.544830 92.352097,166.145172 
	C94.144569,163.121658 96.316742,160.270844 99.089020,157.374878 
	C105.764618,158.542099 111.840096,159.754425 117.915573,160.966751 
z"/>
<path fill="#969799" opacity="1.000000" stroke="none" 
	d="
M117.940102,160.524597 
	C111.840096,159.754425 105.764618,158.542099 99.347809,157.168549 
	C99.576912,156.180496 100.147346,155.353653 100.833275,154.247589 
	C101.512421,153.460266 102.076073,152.952194 103.222107,152.290298 
	C108.500626,152.413223 113.196770,152.690002 117.892921,152.966766 
	C117.916824,155.338654 117.940727,157.710556 117.940102,160.524597 
z"/>
<path fill="#A1A3A4" opacity="1.000000" stroke="none" 
	d="
M117.924538,152.502380 
	C113.196770,152.690002 108.500626,152.413223 103.408234,152.072968 
	C104.586792,149.878113 106.161591,147.746765 107.872818,145.310883 
	C111.159271,141.454620 114.309296,137.902908 117.756393,134.193970 
	C118.021027,140.037170 117.988594,146.037567 117.924538,152.502380 
z"/>
</svg>